<svg width="7" height="4" viewBox="0 0 7 4" fill="none" xmlns="http://www.w3.org/2000/svg">
<path d="M7 0.566369C7 0.619466 6.98196 0.672563 6.92784 0.72566L3.66237 3.9292C3.60825 3.9823 3.55412 4 3.5 4C3.44588 4 3.39175 3.9823 3.33763 3.9292L0.0721639 0.72566C0.0180401 0.672563 0 0.619466 0 0.566369C0 0.513272 0.0180401 0.460175 0.0721639 0.407078L0.414946 0.0707955C0.46907 0.0176981 0.523193 0 0.577316 0C0.63144 0 0.685568 0.0176981 0.739692 0.0707955L3.5 2.77876L6.26031 0.0707955C6.31443 0.0176981 6.36856 0 6.42268 0C6.47681 0 6.53093 0.0176981 6.58505 0.0707955L6.92784 0.407078C6.96392 0.460175 7 0.513272 7 0.566369Z" fill="#1A1A1A"/>
</svg>
