<svg width="25" height="25" viewBox="0 0 25 25" fill="none" xmlns="http://www.w3.org/2000/svg">
<path d="M11.3044 12.5038L0.238388 23.6472C-0.0690457 23.9568 -0.0690457 24.4583 0.238388 24.7679C0.39191 24.9229 0.59348 25 0.79466 25C0.99623 25 1.19741 24.9229 1.35093 24.7679L12.5002 13.5408L23.6495 24.7679C23.8034 24.9229 24.0046 25 24.2057 25C24.4069 25 24.6085 24.9229 24.762 24.7679C25.0694 24.4583 25.0694 23.9568 24.762 23.6472L13.6963 12.5038L24.7694 1.3526C25.0769 1.04302 25.0769 0.541473 24.7694 0.231891C24.462 -0.0772971 23.9639 -0.0772971 23.6569 0.231891L12.5006 11.4669L1.34312 0.232285C1.03569 -0.0769037 0.538009 -0.0769037 0.230575 0.232285C-0.0768585 0.541866 -0.0768585 1.04341 0.230575 1.35299L11.3044 12.5038Z" fill="white"/>
</svg>
