<svg width="15" height="7" viewBox="0 0 15 7" fill="none" xmlns="http://www.w3.org/2000/svg">
<path d="M15 0.991146C15 1.08407 14.9613 1.17698 14.8454 1.26991L7.84794 6.87611C7.73196 6.96903 7.61598 7 7.5 7C7.38402 7 7.26804 6.96903 7.15206 6.87611L0.154637 1.26991C0.0386574 1.17698 0 1.08407 0 0.991146C0 0.898225 0.0386574 0.805307 0.154637 0.712386L0.889171 0.123892C1.00515 0.0309716 1.12113 0 1.23711 0C1.35309 0 1.46907 0.0309716 1.58505 0.123892L7.5 4.86283L13.4149 0.123892C13.5309 0.0309716 13.6469 0 13.7629 0C13.8789 0 13.9948 0.0309716 14.1108 0.123892L14.8454 0.712386C14.9227 0.805307 15 0.898225 15 0.991146Z" fill="#FF360E"/>
</svg>
