<svg width="13" height="13" viewBox="0 0 13 13" fill="none" xmlns="http://www.w3.org/2000/svg">
<path d="M12.8876 12.337L9.72766 9.17783C10.5753 8.20355 11.0885 6.93237 11.0885 5.54302C11.0885 2.4847 8.60036 0 5.54424 0C2.48525 0 0 2.48758 0 5.54302C0 8.59845 2.48813 11.086 5.54424 11.086C6.93391 11.086 8.20537 10.5729 9.17986 9.7255L12.3398 12.8847C12.4147 12.9596 12.5156 13 12.6137 13C12.7117 13 12.8126 12.9625 12.8876 12.8847C13.0375 12.7348 13.0375 12.4869 12.8876 12.337ZM0.77556 5.54302C0.77556 2.91419 2.91484 0.778271 5.54136 0.778271C8.17077 0.778271 10.3072 2.91707 10.3072 5.54302C10.3072 8.16896 8.17077 10.3106 5.54136 10.3106C2.91484 10.3106 0.77556 8.17184 0.77556 5.54302Z" fill="#FF360E"/>
</svg>
