<svg width="14" height="11" viewBox="0 0 14 11" fill="none" xmlns="http://www.w3.org/2000/svg">
<path d="M12.2936 5.82124C11.2802 4.50673 9.37054 2.94212 6.00367 2.80792V0.374087C6.00367 0.230741 5.92637 0.0965447 5.80327 0.0355464C5.68016 -0.025452 5.53415 -0.00715253 5.43108 0.084345L0.128834 4.74157C0.0486707 4.81172 0 4.91846 0 5.02826C0 5.14111 0.0458077 5.24481 0.125971 5.31495L5.42822 9.99048C5.53415 10.082 5.6773 10.1033 5.8004 10.0393C5.92351 9.97828 6.00081 9.84713 6.00081 9.70074V7.27605C8.19958 7.2852 11.5607 7.45905 13.3444 10.8109C13.4073 10.9299 13.5247 11 13.6507 11C13.6793 11 13.7108 10.997 13.7395 10.9878C13.8941 10.9451 14 10.7957 14 10.6279C14.0028 9.37439 13.5534 7.456 12.2936 5.82124ZM5.65153 6.52882C5.55705 6.52882 5.4683 6.56847 5.40245 6.63862C5.3366 6.70877 5.29938 6.80331 5.29938 6.90396V8.90776L0.904703 5.03131L5.30224 1.16707V3.17086C5.30224 3.37521 5.45685 3.54295 5.64867 3.546C10.6875 3.59785 12.5656 6.87041 13.1125 9.17005C10.9423 6.53187 7.69283 6.52882 5.65153 6.52882Z" fill="#FF360E"/>
</svg>
