<svg width="5" height="5" viewBox="0 0 5 5" fill="none" xmlns="http://www.w3.org/2000/svg">
<path d="M4.79753 0.202528C4.52757 -0.0675093 4.09104 -0.0675093 3.82108 0.202528L2.5 1.52399L1.17892 0.202528C0.90896 -0.0675093 0.47243 -0.0675093 0.20247 0.202528C-0.0674899 0.472565 -0.0674899 0.909221 0.20247 1.17926L1.52355 2.50072L0.20247 3.82218C-0.0674899 4.09222 -0.0674899 4.52887 0.20247 4.79891C0.334578 4.93105 0.512636 5 0.690695 5C0.868753 5 1.04107 4.93105 1.17892 4.79891L2.5 3.47745L3.82108 4.79891C3.95319 4.93105 4.13125 5 4.3093 5C4.48736 5 4.65968 4.93105 4.79753 4.79891C5.06749 4.52887 5.06749 4.09222 4.79753 3.82218L3.47645 2.50072L4.79753 1.17926C5.06749 0.909221 5.06749 0.472565 4.79753 0.202528Z" fill="#99ACBA"/>
</svg>
