<svg width="6" height="3" viewBox="0 0 6 3" fill="none" xmlns="http://www.w3.org/2000/svg">
<path d="M5.70375 0.407778C5.70375 0.446007 5.68905 0.484236 5.64495 0.522465L2.98418 2.82897C2.94008 2.8672 2.89598 2.87994 2.85188 2.87994C2.80778 2.87994 2.76368 2.8672 2.71957 2.82897L0.0588007 0.522465C0.0146995 0.484236 0 0.446007 0 0.407778C0 0.369548 0.0146995 0.33132 0.0588007 0.29309L0.338107 0.0509717C0.382209 0.0127423 0.426309 0 0.47041 0C0.514511 0 0.558616 0.0127423 0.602717 0.0509717L2.85188 2.00067L5.10104 0.0509717C5.14514 0.0127423 5.18924 0 5.23334 0C5.27744 0 5.32155 0.0127423 5.36565 0.0509717L5.64495 0.29309C5.67435 0.33132 5.70375 0.369548 5.70375 0.407778Z" fill="#99ACBA"/>
</svg>
