<svg width="13" height="16" viewBox="0 0 13 16" fill="none" xmlns="http://www.w3.org/2000/svg">
<path d="M12.6464 1.50753H8.60765V0.748594C8.60765 0.335813 8.2927 0 7.90562 0H5.09441C4.7073 0 4.39238 0.335813 4.39238 0.748594V1.5075H0.353627C0.158309 1.5075 0 1.67606 0 1.88403C0 2.092 0.158309 2.26056 0.353627 2.26056H1.00905L1.45598 14.6479C1.48333 15.4061 2.06295 16 2.77557 16H10.2245C10.9371 16 11.5167 15.4061 11.544 14.6479L11.9909 2.26053H12.6464C12.8416 2.26053 13 2.09197 13 1.884C13 1.67609 12.8417 1.50753 12.6464 1.50753ZM5.09961 0.753031H7.90039V1.5075H5.09961V0.753031ZM10.8373 14.619C10.8246 14.9712 10.5554 15.247 10.2245 15.247H2.77557C2.44463 15.247 2.17544 14.9711 2.1627 14.619L1.71683 2.26056H11.2832L10.8373 14.619Z" fill="#FF360E"/>
<path d="M4.34682 5.67397C4.3431 5.4685 4.18558 5.30469 3.9934 5.30469C3.99111 5.30469 3.98876 5.30469 3.98647 5.30475C3.79124 5.30875 3.63596 5.48056 3.63972 5.68844L3.75068 11.8333C3.75438 12.0387 3.91196 12.2025 4.10411 12.2025C4.10639 12.2025 4.10874 12.2025 4.11103 12.2025C4.30629 12.1985 4.46155 12.0267 4.45779 11.8188L4.34682 5.67397Z" fill="#FF360E"/>
<path d="M6.50011 5.30469C6.30482 5.30469 6.14648 5.47325 6.14648 5.68122V11.826C6.14648 12.034 6.30479 12.2026 6.50011 12.2026C6.69543 12.2026 6.85374 12.034 6.85374 11.826V5.68122C6.85374 5.47328 6.69543 5.30469 6.50011 5.30469Z" fill="#FF360E"/>
<path d="M9.01386 5.30478C8.81934 5.30019 8.65724 5.46609 8.65352 5.674L8.54255 11.8188C8.53876 12.0267 8.69405 12.1985 8.88931 12.2025C8.8916 12.2025 8.89394 12.2026 8.89623 12.2026C9.08835 12.2026 9.24596 12.0387 9.24966 11.8333L9.36062 5.68847C9.36438 5.48053 9.20915 5.30875 9.01386 5.30478Z" fill="#FF360E"/>
</svg>
